<svg width="21" height="16" viewBox="0 0 21 16" fill="none" xmlns="http://www.w3.org/2000/svg">
    <path
        d="M15.5433 15.6109C15.7925 15.86 16.1305 16 16.4829 16C16.8353 16 17.1733 15.86 17.4226 15.6109L17.6097 15.4226C17.8588 15.1733 17.9988 14.8353 17.9988 14.4829C17.9988 14.1305 17.8588 13.7925 17.6097 13.5433L12.0676 8L17.6109 2.45674C17.86 2.20749 18 1.86949 18 1.51707C18 1.16465 17.86 0.826657 17.6109 0.577401L17.4226 0.389098C17.1733 0.139956 16.8353 0 16.4829 0C16.1305 0 15.7925 0.139956 15.5433 0.389098L10 5.93236L4.45674 0.390328C4.20749 0.141187 3.86949 0.00123065 3.51707 0.00123065C3.16465 0.00123065 2.82666 0.141187 2.5774 0.390328L2.3891 0.578632C2.13996 0.827888 2 1.16588 2 1.5183C2 1.87072 2.13996 2.20872 2.3891 2.45797L7.93236 8L2.3891 13.5433C2.13996 13.7925 2 14.1305 2 14.4829C2 14.8353 2.13996 15.1733 2.3891 15.4226L2.5774 15.6097C2.82666 15.8588 3.16465 15.9988 3.51707 15.9988C3.86949 15.9988 4.20749 15.8588 4.45674 15.6097L10 10.0676L15.5433 15.6109Z"
        fill="white" />
</svg>