<svg width="18" height="14" viewBox="0 0 18 14" fill="none" xmlns="http://www.w3.org/2000/svg">
    <path
        d="M0.72699 1.564C0.72699 0.976 1.20399 0.5 1.79099 0.5H16.209C16.797 0.5 17.273 0.976 17.273 1.564V1.8C17.273 2.387 16.797 2.864 16.209 2.864H1.79099C1.65126 2.864 1.51291 2.83648 1.38381 2.78301C1.25472 2.72954 1.13743 2.65116 1.03863 2.55236C0.939827 2.45356 0.861453 2.33627 0.807982 2.20718C0.754511 2.07808 0.72699 1.93973 0.72699 1.8V1.564ZM0.72699 6.882C0.72699 6.294 1.20399 5.818 1.79099 5.818H16.209C16.797 5.818 17.273 6.294 17.273 6.882V7.118C17.273 7.706 16.797 8.182 16.209 8.182H1.79099C1.5088 8.182 1.23817 8.0699 1.03863 7.87036C0.83909 7.67082 0.72699 7.40019 0.72699 7.118V6.882ZM1.79099 11.136C1.20299 11.136 0.72699 11.613 0.72699 12.2V12.436C0.72699 13.024 1.20399 13.5 1.79099 13.5H16.209C16.797 13.5 17.273 13.024 17.273 12.436V12.2C17.273 11.613 16.797 11.136 16.209 11.136H1.79099ZM0.72699 1.564C0.72699 0.976 1.20399 0.5 1.79099 0.5H16.209C16.797 0.5 17.273 0.976 17.273 1.564V1.8C17.273 2.387 16.797 2.864 16.209 2.864H1.79099C1.65126 2.864 1.51291 2.83648 1.38381 2.78301C1.25472 2.72954 1.13743 2.65116 1.03863 2.55236C0.939827 2.45356 0.861453 2.33627 0.807982 2.20718C0.754511 2.07808 0.72699 1.93973 0.72699 1.8V1.564ZM0.72699 6.882C0.72699 6.294 1.20399 5.818 1.79099 5.818H16.209C16.797 5.818 17.273 6.294 17.273 6.882V7.118C17.273 7.706 16.797 8.182 16.209 8.182H1.79099C1.5088 8.182 1.23817 8.0699 1.03863 7.87036C0.83909 7.67082 0.72699 7.40019 0.72699 7.118V6.882ZM1.79099 11.136C1.20299 11.136 0.72699 11.613 0.72699 12.2V12.436C0.72699 13.024 1.20399 13.5 1.79099 13.5H16.209C16.797 13.5 17.273 13.024 17.273 12.436V12.2C17.273 11.613 16.797 11.136 16.209 11.136H1.79099ZM0.72699 1.564C0.72699 0.976 1.20399 0.5 1.79099 0.5H16.209C16.797 0.5 17.273 0.976 17.273 1.564V1.8C17.273 2.387 16.797 2.864 16.209 2.864H1.79099C1.65126 2.864 1.51291 2.83648 1.38381 2.78301C1.25472 2.72954 1.13743 2.65116 1.03863 2.55236C0.939827 2.45356 0.861453 2.33627 0.807982 2.20718C0.754511 2.07808 0.72699 1.93973 0.72699 1.8V1.564ZM0.72699 6.882C0.72699 6.294 1.20399 5.818 1.79099 5.818H16.209C16.797 5.818 17.273 6.294 17.273 6.882V7.118C17.273 7.706 16.797 8.182 16.209 8.182H1.79099C1.5088 8.182 1.23817 8.0699 1.03863 7.87036C0.83909 7.67082 0.72699 7.40019 0.72699 7.118V6.882ZM1.79099 11.136C1.20299 11.136 0.72699 11.613 0.72699 12.2V12.436C0.72699 13.024 1.20399 13.5 1.79099 13.5H16.209C16.797 13.5 17.273 13.024 17.273 12.436V12.2C17.273 11.613 16.797 11.136 16.209 11.136H1.79099Z"
        fill="white" />
</svg>